<?xml version="1.0" encoding="utf-8" standalone="no"?>
<!DOCTYPE svg PUBLIC "-//W3C//DTD SVG 1.1//EN"
  "http://www.w3.org/Graphics/SVG/1.1/DTD/svg11.dtd">
<!-- Created with matplotlib (https://matplotlib.org/) -->
<svg height="432pt" version="1.1" viewBox="0 0 1728 432" width="1728pt" xmlns="http://www.w3.org/2000/svg" xmlns:xlink="http://www.w3.org/1999/xlink">
 <metadata>
  <rdf:RDF xmlns:cc="http://creativecommons.org/ns#" xmlns:dc="http://purl.org/dc/elements/1.1/" xmlns:rdf="http://www.w3.org/1999/02/22-rdf-syntax-ns#">
   <cc:Work>
    <dc:type rdf:resource="http://purl.org/dc/dcmitype/StillImage"/>
    <dc:date>2020-09-09T19:42:01.241247</dc:date>
    <dc:format>image/svg+xml</dc:format>
    <dc:creator>
     <cc:Agent>
      <dc:title>Matplotlib v3.3.1, https://matplotlib.org/</dc:title>
     </cc:Agent>
    </dc:creator>
   </cc:Work>
  </rdf:RDF>
 </metadata>
 <defs>
  <style type="text/css">*{stroke-linecap:butt;stroke-linejoin:round;}</style>
 </defs>
 <g id="figure_1">
  <g id="patch_1">
   <path d="M 0 432 
L 1728 432 
L 1728 0 
L 0 0 
z
" style="fill:#ffffff;"/>
  </g>
  <g id="axes_1">
   <g id="patch_2">
    <path d="M 216 203.04 
L 1555.2 203.04 
L 1555.2 51.84 
L 216 51.84 
z
" style="fill:#ffffff;"/>
   </g>
   <g id="matplotlib.axis_1">
    <g id="xtick_1">
     <g id="line2d_1">
      <path clip-path="url(#p28d1381a42)" d="M 276.872727 203.04 
L 276.872727 51.84 
" style="fill:none;stroke:#b0b0b0;stroke-linecap:square;stroke-width:0.8;"/>
     </g>
     <g id="line2d_2">
      <defs>
       <path d="M 0 0 
L 0 3.5 
" id="m2f8106ac00" style="stroke:#000000;stroke-width:0.8;"/>
      </defs>
      <g>
       <use style="stroke:#000000;stroke-width:0.8;" x="276.872727" xlink:href="#m2f8106ac00" y="203.04"/>
      </g>
     </g>
     <g id="text_1">
      <!-- 0 -->
      <g transform="translate(273.691477 217.638437)scale(0.1 -0.1)">
       <defs>
        <path d="M 31.78125 66.40625 
Q 24.171875 66.40625 20.328125 58.90625 
Q 16.5 51.421875 16.5 36.375 
Q 16.5 21.390625 20.328125 13.890625 
Q 24.171875 6.390625 31.78125 6.390625 
Q 39.453125 6.390625 43.28125 13.890625 
Q 47.125 21.390625 47.125 36.375 
Q 47.125 51.421875 43.28125 58.90625 
Q 39.453125 66.40625 31.78125 66.40625 
z
M 31.78125 74.21875 
Q 44.046875 74.21875 50.515625 64.515625 
Q 56.984375 54.828125 56.984375 36.375 
Q 56.984375 17.96875 50.515625 8.265625 
Q 44.046875 -1.421875 31.78125 -1.421875 
Q 19.53125 -1.421875 13.0625 8.265625 
Q 6.59375 17.96875 6.59375 36.375 
Q 6.59375 54.828125 13.0625 64.515625 
Q 19.53125 74.21875 31.78125 74.21875 
z
" id="DejaVuSans-48"/>
       </defs>
       <use xlink:href="#DejaVuSans-48"/>
      </g>
     </g>
    </g>
    <g id="xtick_2">
     <g id="line2d_3">
      <path clip-path="url(#p28d1381a42)" d="M 517.952835 203.04 
L 517.952835 51.84 
" style="fill:none;stroke:#b0b0b0;stroke-linecap:square;stroke-width:0.8;"/>
     </g>
     <g id="line2d_4">
      <g>
       <use style="stroke:#000000;stroke-width:0.8;" x="517.952835" xlink:href="#m2f8106ac00" y="203.04"/>
      </g>
     </g>
     <g id="text_2">
      <!-- 20 -->
      <g transform="translate(511.590335 217.638437)scale(0.1 -0.1)">
       <defs>
        <path d="M 19.1875 8.296875 
L 53.609375 8.296875 
L 53.609375 0 
L 7.328125 0 
L 7.328125 8.296875 
Q 12.9375 14.109375 22.625 23.890625 
Q 32.328125 33.6875 34.8125 36.53125 
Q 39.546875 41.84375 41.421875 45.53125 
Q 43.3125 49.21875 43.3125 52.78125 
Q 43.3125 58.59375 39.234375 62.25 
Q 35.15625 65.921875 28.609375 65.921875 
Q 23.96875 65.921875 18.8125 64.3125 
Q 13.671875 62.703125 7.8125 59.421875 
L 7.8125 69.390625 
Q 13.765625 71.78125 18.9375 73 
Q 24.125 74.21875 28.421875 74.21875 
Q 39.75 74.21875 46.484375 68.546875 
Q 53.21875 62.890625 53.21875 53.421875 
Q 53.21875 48.921875 51.53125 44.890625 
Q 49.859375 40.875 45.40625 35.40625 
Q 44.1875 33.984375 37.640625 27.21875 
Q 31.109375 20.453125 19.1875 8.296875 
z
" id="DejaVuSans-50"/>
       </defs>
       <use xlink:href="#DejaVuSans-50"/>
       <use x="63.623047" xlink:href="#DejaVuSans-48"/>
      </g>
     </g>
    </g>
    <g id="xtick_3">
     <g id="line2d_5">
      <path clip-path="url(#p28d1381a42)" d="M 759.032943 203.04 
L 759.032943 51.84 
" style="fill:none;stroke:#b0b0b0;stroke-linecap:square;stroke-width:0.8;"/>
     </g>
     <g id="line2d_6">
      <g>
       <use style="stroke:#000000;stroke-width:0.8;" x="759.032943" xlink:href="#m2f8106ac00" y="203.04"/>
      </g>
     </g>
     <g id="text_3">
      <!-- 40 -->
      <g transform="translate(752.670443 217.638437)scale(0.1 -0.1)">
       <defs>
        <path d="M 37.796875 64.3125 
L 12.890625 25.390625 
L 37.796875 25.390625 
z
M 35.203125 72.90625 
L 47.609375 72.90625 
L 47.609375 25.390625 
L 58.015625 25.390625 
L 58.015625 17.1875 
L 47.609375 17.1875 
L 47.609375 0 
L 37.796875 0 
L 37.796875 17.1875 
L 4.890625 17.1875 
L 4.890625 26.703125 
z
" id="DejaVuSans-52"/>
       </defs>
       <use xlink:href="#DejaVuSans-52"/>
       <use x="63.623047" xlink:href="#DejaVuSans-48"/>
      </g>
     </g>
    </g>
    <g id="xtick_4">
     <g id="line2d_7">
      <path clip-path="url(#p28d1381a42)" d="M 1000.113051 203.04 
L 1000.113051 51.84 
" style="fill:none;stroke:#b0b0b0;stroke-linecap:square;stroke-width:0.8;"/>
     </g>
     <g id="line2d_8">
      <g>
       <use style="stroke:#000000;stroke-width:0.8;" x="1000.113051" xlink:href="#m2f8106ac00" y="203.04"/>
      </g>
     </g>
     <g id="text_4">
      <!-- 60 -->
      <g transform="translate(993.750551 217.638437)scale(0.1 -0.1)">
       <defs>
        <path d="M 33.015625 40.375 
Q 26.375 40.375 22.484375 35.828125 
Q 18.609375 31.296875 18.609375 23.390625 
Q 18.609375 15.53125 22.484375 10.953125 
Q 26.375 6.390625 33.015625 6.390625 
Q 39.65625 6.390625 43.53125 10.953125 
Q 47.40625 15.53125 47.40625 23.390625 
Q 47.40625 31.296875 43.53125 35.828125 
Q 39.65625 40.375 33.015625 40.375 
z
M 52.59375 71.296875 
L 52.59375 62.3125 
Q 48.875 64.0625 45.09375 64.984375 
Q 41.3125 65.921875 37.59375 65.921875 
Q 27.828125 65.921875 22.671875 59.328125 
Q 17.53125 52.734375 16.796875 39.40625 
Q 19.671875 43.65625 24.015625 45.921875 
Q 28.375 48.1875 33.59375 48.1875 
Q 44.578125 48.1875 50.953125 41.515625 
Q 57.328125 34.859375 57.328125 23.390625 
Q 57.328125 12.15625 50.6875 5.359375 
Q 44.046875 -1.421875 33.015625 -1.421875 
Q 20.359375 -1.421875 13.671875 8.265625 
Q 6.984375 17.96875 6.984375 36.375 
Q 6.984375 53.65625 15.1875 63.9375 
Q 23.390625 74.21875 37.203125 74.21875 
Q 40.921875 74.21875 44.703125 73.484375 
Q 48.484375 72.75 52.59375 71.296875 
z
" id="DejaVuSans-54"/>
       </defs>
       <use xlink:href="#DejaVuSans-54"/>
       <use x="63.623047" xlink:href="#DejaVuSans-48"/>
      </g>
     </g>
    </g>
    <g id="xtick_5">
     <g id="line2d_9">
      <path clip-path="url(#p28d1381a42)" d="M 1241.193159 203.04 
L 1241.193159 51.84 
" style="fill:none;stroke:#b0b0b0;stroke-linecap:square;stroke-width:0.8;"/>
     </g>
     <g id="line2d_10">
      <g>
       <use style="stroke:#000000;stroke-width:0.8;" x="1241.193159" xlink:href="#m2f8106ac00" y="203.04"/>
      </g>
     </g>
     <g id="text_5">
      <!-- 80 -->
      <g transform="translate(1234.830659 217.638437)scale(0.1 -0.1)">
       <defs>
        <path d="M 31.78125 34.625 
Q 24.75 34.625 20.71875 30.859375 
Q 16.703125 27.09375 16.703125 20.515625 
Q 16.703125 13.921875 20.71875 10.15625 
Q 24.75 6.390625 31.78125 6.390625 
Q 38.8125 6.390625 42.859375 10.171875 
Q 46.921875 13.96875 46.921875 20.515625 
Q 46.921875 27.09375 42.890625 30.859375 
Q 38.875 34.625 31.78125 34.625 
z
M 21.921875 38.8125 
Q 15.578125 40.375 12.03125 44.71875 
Q 8.5 49.078125 8.5 55.328125 
Q 8.5 64.0625 14.71875 69.140625 
Q 20.953125 74.21875 31.78125 74.21875 
Q 42.671875 74.21875 48.875 69.140625 
Q 55.078125 64.0625 55.078125 55.328125 
Q 55.078125 49.078125 51.53125 44.71875 
Q 48 40.375 41.703125 38.8125 
Q 48.828125 37.15625 52.796875 32.3125 
Q 56.78125 27.484375 56.78125 20.515625 
Q 56.78125 9.90625 50.3125 4.234375 
Q 43.84375 -1.421875 31.78125 -1.421875 
Q 19.734375 -1.421875 13.25 4.234375 
Q 6.78125 9.90625 6.78125 20.515625 
Q 6.78125 27.484375 10.78125 32.3125 
Q 14.796875 37.15625 21.921875 38.8125 
z
M 18.3125 54.390625 
Q 18.3125 48.734375 21.84375 45.5625 
Q 25.390625 42.390625 31.78125 42.390625 
Q 38.140625 42.390625 41.71875 45.5625 
Q 45.3125 48.734375 45.3125 54.390625 
Q 45.3125 60.0625 41.71875 63.234375 
Q 38.140625 66.40625 31.78125 66.40625 
Q 25.390625 66.40625 21.84375 63.234375 
Q 18.3125 60.0625 18.3125 54.390625 
z
" id="DejaVuSans-56"/>
       </defs>
       <use xlink:href="#DejaVuSans-56"/>
       <use x="63.623047" xlink:href="#DejaVuSans-48"/>
      </g>
     </g>
    </g>
    <g id="xtick_6">
     <g id="line2d_11">
      <path clip-path="url(#p28d1381a42)" d="M 1482.273267 203.04 
L 1482.273267 51.84 
" style="fill:none;stroke:#b0b0b0;stroke-linecap:square;stroke-width:0.8;"/>
     </g>
     <g id="line2d_12">
      <g>
       <use style="stroke:#000000;stroke-width:0.8;" x="1482.273267" xlink:href="#m2f8106ac00" y="203.04"/>
      </g>
     </g>
     <g id="text_6">
      <!-- 100 -->
      <g transform="translate(1472.729517 217.638437)scale(0.1 -0.1)">
       <defs>
        <path d="M 12.40625 8.296875 
L 28.515625 8.296875 
L 28.515625 63.921875 
L 10.984375 60.40625 
L 10.984375 69.390625 
L 28.421875 72.90625 
L 38.28125 72.90625 
L 38.28125 8.296875 
L 54.390625 8.296875 
L 54.390625 0 
L 12.40625 0 
z
" id="DejaVuSans-49"/>
       </defs>
       <use xlink:href="#DejaVuSans-49"/>
       <use x="63.623047" xlink:href="#DejaVuSans-48"/>
       <use x="127.246094" xlink:href="#DejaVuSans-48"/>
      </g>
     </g>
    </g>
    <g id="text_7">
     <!-- Episodes -->
     <g transform="translate(863.357813 231.316562)scale(0.1 -0.1)">
      <defs>
       <path d="M 9.8125 72.90625 
L 55.90625 72.90625 
L 55.90625 64.59375 
L 19.671875 64.59375 
L 19.671875 43.015625 
L 54.390625 43.015625 
L 54.390625 34.71875 
L 19.671875 34.71875 
L 19.671875 8.296875 
L 56.78125 8.296875 
L 56.78125 0 
L 9.8125 0 
z
" id="DejaVuSans-69"/>
       <path d="M 18.109375 8.203125 
L 18.109375 -20.796875 
L 9.078125 -20.796875 
L 9.078125 54.6875 
L 18.109375 54.6875 
L 18.109375 46.390625 
Q 20.953125 51.265625 25.265625 53.625 
Q 29.59375 56 35.59375 56 
Q 45.5625 56 51.78125 48.09375 
Q 58.015625 40.1875 58.015625 27.296875 
Q 58.015625 14.40625 51.78125 6.484375 
Q 45.5625 -1.421875 35.59375 -1.421875 
Q 29.59375 -1.421875 25.265625 0.953125 
Q 20.953125 3.328125 18.109375 8.203125 
z
M 48.6875 27.296875 
Q 48.6875 37.203125 44.609375 42.84375 
Q 40.53125 48.484375 33.40625 48.484375 
Q 26.265625 48.484375 22.1875 42.84375 
Q 18.109375 37.203125 18.109375 27.296875 
Q 18.109375 17.390625 22.1875 11.75 
Q 26.265625 6.109375 33.40625 6.109375 
Q 40.53125 6.109375 44.609375 11.75 
Q 48.6875 17.390625 48.6875 27.296875 
z
" id="DejaVuSans-112"/>
       <path d="M 9.421875 54.6875 
L 18.40625 54.6875 
L 18.40625 0 
L 9.421875 0 
z
M 9.421875 75.984375 
L 18.40625 75.984375 
L 18.40625 64.59375 
L 9.421875 64.59375 
z
" id="DejaVuSans-105"/>
       <path d="M 44.28125 53.078125 
L 44.28125 44.578125 
Q 40.484375 46.53125 36.375 47.5 
Q 32.28125 48.484375 27.875 48.484375 
Q 21.1875 48.484375 17.84375 46.4375 
Q 14.5 44.390625 14.5 40.28125 
Q 14.5 37.15625 16.890625 35.375 
Q 19.28125 33.59375 26.515625 31.984375 
L 29.59375 31.296875 
Q 39.15625 29.25 43.1875 25.515625 
Q 47.21875 21.78125 47.21875 15.09375 
Q 47.21875 7.46875 41.1875 3.015625 
Q 35.15625 -1.421875 24.609375 -1.421875 
Q 20.21875 -1.421875 15.453125 -0.5625 
Q 10.6875 0.296875 5.421875 2 
L 5.421875 11.28125 
Q 10.40625 8.6875 15.234375 7.390625 
Q 20.0625 6.109375 24.8125 6.109375 
Q 31.15625 6.109375 34.5625 8.28125 
Q 37.984375 10.453125 37.984375 14.40625 
Q 37.984375 18.0625 35.515625 20.015625 
Q 33.0625 21.96875 24.703125 23.78125 
L 21.578125 24.515625 
Q 13.234375 26.265625 9.515625 29.90625 
Q 5.8125 33.546875 5.8125 39.890625 
Q 5.8125 47.609375 11.28125 51.796875 
Q 16.75 56 26.8125 56 
Q 31.78125 56 36.171875 55.265625 
Q 40.578125 54.546875 44.28125 53.078125 
z
" id="DejaVuSans-115"/>
       <path d="M 30.609375 48.390625 
Q 23.390625 48.390625 19.1875 42.75 
Q 14.984375 37.109375 14.984375 27.296875 
Q 14.984375 17.484375 19.15625 11.84375 
Q 23.34375 6.203125 30.609375 6.203125 
Q 37.796875 6.203125 41.984375 11.859375 
Q 46.1875 17.53125 46.1875 27.296875 
Q 46.1875 37.015625 41.984375 42.703125 
Q 37.796875 48.390625 30.609375 48.390625 
z
M 30.609375 56 
Q 42.328125 56 49.015625 48.375 
Q 55.71875 40.765625 55.71875 27.296875 
Q 55.71875 13.875 49.015625 6.21875 
Q 42.328125 -1.421875 30.609375 -1.421875 
Q 18.84375 -1.421875 12.171875 6.21875 
Q 5.515625 13.875 5.515625 27.296875 
Q 5.515625 40.765625 12.171875 48.375 
Q 18.84375 56 30.609375 56 
z
" id="DejaVuSans-111"/>
       <path d="M 45.40625 46.390625 
L 45.40625 75.984375 
L 54.390625 75.984375 
L 54.390625 0 
L 45.40625 0 
L 45.40625 8.203125 
Q 42.578125 3.328125 38.25 0.953125 
Q 33.9375 -1.421875 27.875 -1.421875 
Q 17.96875 -1.421875 11.734375 6.484375 
Q 5.515625 14.40625 5.515625 27.296875 
Q 5.515625 40.1875 11.734375 48.09375 
Q 17.96875 56 27.875 56 
Q 33.9375 56 38.25 53.625 
Q 42.578125 51.265625 45.40625 46.390625 
z
M 14.796875 27.296875 
Q 14.796875 17.390625 18.875 11.75 
Q 22.953125 6.109375 30.078125 6.109375 
Q 37.203125 6.109375 41.296875 11.75 
Q 45.40625 17.390625 45.40625 27.296875 
Q 45.40625 37.203125 41.296875 42.84375 
Q 37.203125 48.484375 30.078125 48.484375 
Q 22.953125 48.484375 18.875 42.84375 
Q 14.796875 37.203125 14.796875 27.296875 
z
" id="DejaVuSans-100"/>
       <path d="M 56.203125 29.59375 
L 56.203125 25.203125 
L 14.890625 25.203125 
Q 15.484375 15.921875 20.484375 11.0625 
Q 25.484375 6.203125 34.421875 6.203125 
Q 39.59375 6.203125 44.453125 7.46875 
Q 49.3125 8.734375 54.109375 11.28125 
L 54.109375 2.78125 
Q 49.265625 0.734375 44.1875 -0.34375 
Q 39.109375 -1.421875 33.890625 -1.421875 
Q 20.796875 -1.421875 13.15625 6.1875 
Q 5.515625 13.8125 5.515625 26.8125 
Q 5.515625 40.234375 12.765625 48.109375 
Q 20.015625 56 32.328125 56 
Q 43.359375 56 49.78125 48.890625 
Q 56.203125 41.796875 56.203125 29.59375 
z
M 47.21875 32.234375 
Q 47.125 39.59375 43.09375 43.984375 
Q 39.0625 48.390625 32.421875 48.390625 
Q 24.90625 48.390625 20.390625 44.140625 
Q 15.875 39.890625 15.1875 32.171875 
z
" id="DejaVuSans-101"/>
      </defs>
      <use xlink:href="#DejaVuSans-69"/>
      <use x="63.183594" xlink:href="#DejaVuSans-112"/>
      <use x="126.660156" xlink:href="#DejaVuSans-105"/>
      <use x="154.443359" xlink:href="#DejaVuSans-115"/>
      <use x="206.542969" xlink:href="#DejaVuSans-111"/>
      <use x="267.724609" xlink:href="#DejaVuSans-100"/>
      <use x="331.201172" xlink:href="#DejaVuSans-101"/>
      <use x="392.724609" xlink:href="#DejaVuSans-115"/>
     </g>
    </g>
   </g>
   <g id="matplotlib.axis_2">
    <g id="ytick_1">
     <g id="line2d_13">
      <path clip-path="url(#p28d1381a42)" d="M 216 197.056626 
L 1555.2 197.056626 
" style="fill:none;stroke:#b0b0b0;stroke-linecap:square;stroke-width:0.8;"/>
     </g>
     <g id="line2d_14">
      <defs>
       <path d="M 0 0 
L -3.5 0 
" id="m8829937b3e" style="stroke:#000000;stroke-width:0.8;"/>
      </defs>
      <g>
       <use style="stroke:#000000;stroke-width:0.8;" x="216" xlink:href="#m8829937b3e" y="197.056626"/>
      </g>
     </g>
     <g id="text_8">
      <!-- 0 -->
      <g transform="translate(202.6375 200.855845)scale(0.1 -0.1)">
       <use xlink:href="#DejaVuSans-48"/>
      </g>
     </g>
    </g>
    <g id="ytick_2">
     <g id="line2d_15">
      <path clip-path="url(#p28d1381a42)" d="M 216 157.529798 
L 1555.2 157.529798 
" style="fill:none;stroke:#b0b0b0;stroke-linecap:square;stroke-width:0.8;"/>
     </g>
     <g id="line2d_16">
      <g>
       <use style="stroke:#000000;stroke-width:0.8;" x="216" xlink:href="#m8829937b3e" y="157.529798"/>
      </g>
     </g>
     <g id="text_9">
      <!-- 20 -->
      <g transform="translate(196.275 161.329017)scale(0.1 -0.1)">
       <use xlink:href="#DejaVuSans-50"/>
       <use x="63.623047" xlink:href="#DejaVuSans-48"/>
      </g>
     </g>
    </g>
    <g id="ytick_3">
     <g id="line2d_17">
      <path clip-path="url(#p28d1381a42)" d="M 216 118.00297 
L 1555.2 118.00297 
" style="fill:none;stroke:#b0b0b0;stroke-linecap:square;stroke-width:0.8;"/>
     </g>
     <g id="line2d_18">
      <g>
       <use style="stroke:#000000;stroke-width:0.8;" x="216" xlink:href="#m8829937b3e" y="118.00297"/>
      </g>
     </g>
     <g id="text_10">
      <!-- 40 -->
      <g transform="translate(196.275 121.802188)scale(0.1 -0.1)">
       <use xlink:href="#DejaVuSans-52"/>
       <use x="63.623047" xlink:href="#DejaVuSans-48"/>
      </g>
     </g>
    </g>
    <g id="ytick_4">
     <g id="line2d_19">
      <path clip-path="url(#p28d1381a42)" d="M 216 78.476141 
L 1555.2 78.476141 
" style="fill:none;stroke:#b0b0b0;stroke-linecap:square;stroke-width:0.8;"/>
     </g>
     <g id="line2d_20">
      <g>
       <use style="stroke:#000000;stroke-width:0.8;" x="216" xlink:href="#m8829937b3e" y="78.476141"/>
      </g>
     </g>
     <g id="text_11">
      <!-- 60 -->
      <g transform="translate(196.275 82.27536)scale(0.1 -0.1)">
       <use xlink:href="#DejaVuSans-54"/>
       <use x="63.623047" xlink:href="#DejaVuSans-48"/>
      </g>
     </g>
    </g>
    <g id="text_12">
     <!-- Reward / Episode -->
     <g transform="translate(190.195312 170.561094)rotate(-90)scale(0.1 -0.1)">
      <defs>
       <path d="M 44.390625 34.1875 
Q 47.5625 33.109375 50.5625 29.59375 
Q 53.5625 26.078125 56.59375 19.921875 
L 66.609375 0 
L 56 0 
L 46.6875 18.703125 
Q 43.0625 26.03125 39.671875 28.421875 
Q 36.28125 30.8125 30.421875 30.8125 
L 19.671875 30.8125 
L 19.671875 0 
L 9.8125 0 
L 9.8125 72.90625 
L 32.078125 72.90625 
Q 44.578125 72.90625 50.734375 67.671875 
Q 56.890625 62.453125 56.890625 51.90625 
Q 56.890625 45.015625 53.6875 40.46875 
Q 50.484375 35.9375 44.390625 34.1875 
z
M 19.671875 64.796875 
L 19.671875 38.921875 
L 32.078125 38.921875 
Q 39.203125 38.921875 42.84375 42.21875 
Q 46.484375 45.515625 46.484375 51.90625 
Q 46.484375 58.296875 42.84375 61.546875 
Q 39.203125 64.796875 32.078125 64.796875 
z
" id="DejaVuSans-82"/>
       <path d="M 4.203125 54.6875 
L 13.1875 54.6875 
L 24.421875 12.015625 
L 35.59375 54.6875 
L 46.1875 54.6875 
L 57.421875 12.015625 
L 68.609375 54.6875 
L 77.59375 54.6875 
L 63.28125 0 
L 52.6875 0 
L 40.921875 44.828125 
L 29.109375 0 
L 18.5 0 
z
" id="DejaVuSans-119"/>
       <path d="M 34.28125 27.484375 
Q 23.390625 27.484375 19.1875 25 
Q 14.984375 22.515625 14.984375 16.5 
Q 14.984375 11.71875 18.140625 8.90625 
Q 21.296875 6.109375 26.703125 6.109375 
Q 34.1875 6.109375 38.703125 11.40625 
Q 43.21875 16.703125 43.21875 25.484375 
L 43.21875 27.484375 
z
M 52.203125 31.203125 
L 52.203125 0 
L 43.21875 0 
L 43.21875 8.296875 
Q 40.140625 3.328125 35.546875 0.953125 
Q 30.953125 -1.421875 24.3125 -1.421875 
Q 15.921875 -1.421875 10.953125 3.296875 
Q 6 8.015625 6 15.921875 
Q 6 25.140625 12.171875 29.828125 
Q 18.359375 34.515625 30.609375 34.515625 
L 43.21875 34.515625 
L 43.21875 35.40625 
Q 43.21875 41.609375 39.140625 45 
Q 35.0625 48.390625 27.6875 48.390625 
Q 23 48.390625 18.546875 47.265625 
Q 14.109375 46.140625 10.015625 43.890625 
L 10.015625 52.203125 
Q 14.9375 54.109375 19.578125 55.046875 
Q 24.21875 56 28.609375 56 
Q 40.484375 56 46.34375 49.84375 
Q 52.203125 43.703125 52.203125 31.203125 
z
" id="DejaVuSans-97"/>
       <path d="M 41.109375 46.296875 
Q 39.59375 47.171875 37.8125 47.578125 
Q 36.03125 48 33.890625 48 
Q 26.265625 48 22.1875 43.046875 
Q 18.109375 38.09375 18.109375 28.8125 
L 18.109375 0 
L 9.078125 0 
L 9.078125 54.6875 
L 18.109375 54.6875 
L 18.109375 46.1875 
Q 20.953125 51.171875 25.484375 53.578125 
Q 30.03125 56 36.53125 56 
Q 37.453125 56 38.578125 55.875 
Q 39.703125 55.765625 41.0625 55.515625 
z
" id="DejaVuSans-114"/>
       <path id="DejaVuSans-32"/>
       <path d="M 25.390625 72.90625 
L 33.6875 72.90625 
L 8.296875 -9.28125 
L 0 -9.28125 
z
" id="DejaVuSans-47"/>
      </defs>
      <use xlink:href="#DejaVuSans-82"/>
      <use x="64.982422" xlink:href="#DejaVuSans-101"/>
      <use x="126.505859" xlink:href="#DejaVuSans-119"/>
      <use x="208.292969" xlink:href="#DejaVuSans-97"/>
      <use x="269.572266" xlink:href="#DejaVuSans-114"/>
      <use x="308.935547" xlink:href="#DejaVuSans-100"/>
      <use x="372.412109" xlink:href="#DejaVuSans-32"/>
      <use x="404.199219" xlink:href="#DejaVuSans-47"/>
      <use x="437.890625" xlink:href="#DejaVuSans-32"/>
      <use x="469.677734" xlink:href="#DejaVuSans-69"/>
      <use x="532.861328" xlink:href="#DejaVuSans-112"/>
      <use x="596.337891" xlink:href="#DejaVuSans-105"/>
      <use x="624.121094" xlink:href="#DejaVuSans-115"/>
      <use x="676.220703" xlink:href="#DejaVuSans-111"/>
      <use x="737.402344" xlink:href="#DejaVuSans-100"/>
      <use x="800.878906" xlink:href="#DejaVuSans-101"/>
     </g>
    </g>
   </g>
   <g id="line2d_21">
    <path clip-path="url(#p28d1381a42)" d="M 276.872727 179.269554 
L 288.926733 173.340529 
L 300.980738 159.506139 
L 313.034743 171.364188 
L 325.088749 159.506139 
L 337.142754 163.458822 
L 349.19676 135.790042 
L 361.250765 102.192238 
L 373.30477 171.364188 
L 385.358776 157.529798 
L 397.412781 131.83736 
L 409.466787 179.269554 
L 421.520792 143.695408 
L 433.574797 129.861018 
L 445.628803 139.742725 
L 457.682808 175.316871 
L 469.736814 155.553457 
L 481.790819 161.482481 
L 493.844824 173.340529 
L 505.89883 159.506139 
L 517.952835 169.387847 
L 530.006841 167.411505 
L 542.060846 173.340529 
L 554.114851 161.482481 
L 566.168857 145.67175 
L 578.222862 149.624432 
L 590.276868 175.316871 
L 602.330873 169.387847 
L 614.384878 163.458822 
L 626.438884 157.529798 
L 638.492889 153.577115 
L 650.546895 169.387847 
L 662.6009 104.16858 
L 674.654905 159.506139 
L 686.708911 159.506139 
L 698.762916 66.618093 
L 710.816922 167.411505 
L 722.870927 173.340529 
L 734.924932 171.364188 
L 746.978938 94.286873 
L 759.032943 169.387847 
L 771.086949 118.00297 
L 783.140954 171.364188 
L 795.194959 171.364188 
L 807.248965 175.316871 
L 819.30297 114.050287 
L 831.356976 147.648091 
L 843.410981 169.387847 
L 855.464986 153.577115 
L 867.518992 86.381507 
L 879.572997 175.316871 
L 891.627003 175.316871 
L 903.681008 159.506139 
L 915.735014 169.387847 
L 927.789019 118.00297 
L 939.843024 141.719067 
L 951.89703 82.428824 
L 963.951035 159.506139 
L 976.005041 155.553457 
L 988.059046 145.67175 
L 1000.113051 163.458822 
L 1012.167057 145.67175 
L 1024.221062 165.435164 
L 1036.275068 139.742725 
L 1048.329073 147.648091 
L 1060.383078 151.600774 
L 1072.437084 66.618093 
L 1084.491089 165.435164 
L 1096.545095 78.476141 
L 1108.5991 125.908335 
L 1120.653105 151.600774 
L 1132.707111 173.340529 
L 1144.761116 163.458822 
L 1156.815122 161.482481 
L 1168.869127 155.553457 
L 1180.923132 60.689069 
L 1192.977138 175.316871 
L 1205.031143 133.813701 
L 1217.085149 163.458822 
L 1229.139154 163.458822 
L 1241.193159 96.263214 
L 1253.247165 147.648091 
L 1265.30117 159.506139 
L 1277.355176 161.482481 
L 1289.409181 153.577115 
L 1301.463186 167.411505 
L 1313.517192 165.435164 
L 1325.571197 163.458822 
L 1337.625203 167.411505 
L 1349.679208 177.293212 
L 1361.733213 179.269554 
L 1373.787219 58.712727 
L 1385.841224 155.553457 
L 1397.89523 135.790042 
L 1409.949235 161.482481 
L 1422.00324 177.293212 
L 1434.057246 167.411505 
L 1446.111251 165.435164 
L 1458.165257 153.577115 
L 1470.219262 141.719067 
L 1482.273267 175.316871 
L 1494.327273 153.577115 
" style="fill:none;stroke:#0000ff;stroke-linecap:square;stroke-width:1.5;"/>
   </g>
   <g id="line2d_22">
    <path clip-path="url(#p28d1381a42)" d="M 276.872727 196.167273 
L 288.926733 195.025936 
L 300.980738 193.249946 
L 313.034743 192.155658 
L 325.088749 190.523182 
L 337.142754 189.169964 
L 349.19676 186.500968 
L 361.250765 182.285531 
L 373.30477 181.739464 
L 385.358776 180.528981 
L 397.412781 178.0944 
L 409.466787 178.153158 
L 421.520792 176.43027 
L 433.574797 174.101807 
L 445.628803 172.383853 
L 457.682808 172.530504 
L 469.736814 171.681652 
L 481.790819 171.171693 
L 493.844824 171.280135 
L 505.89883 170.691435 
L 517.952835 170.626256 
L 530.006841 170.465518 
L 542.060846 170.609269 
L 554.114851 170.15293 
L 566.168857 168.928871 
L 578.222862 167.963649 
L 590.276868 168.33131 
L 602.330873 168.384137 
L 614.384878 168.137871 
L 626.438884 167.607467 
L 638.492889 166.90595 
L 650.546895 167.030044 
L 662.6009 163.886971 
L 674.654905 163.66793 
L 686.708911 163.45984 
L 698.762916 158.617753 
L 710.816922 159.05744 
L 722.870927 159.771595 
L 734.924932 160.351224 
L 746.978938 157.048007 
L 759.032943 157.664999 
L 771.086949 155.681897 
L 783.140954 156.466012 
L 795.194959 157.210921 
L 807.248965 158.116218 
L 819.30297 155.912922 
L 831.356976 155.49968 
L 843.410981 156.194088 
L 855.464986 156.06324 
L 867.518992 152.579153 
L 879.572997 153.716039 
L 891.627003 154.796081 
L 903.681008 155.031584 
L 915.735014 155.749397 
L 927.789019 153.862075 
L 939.843024 153.254925 
L 951.89703 149.71362 
L 963.951035 150.203246 
L 976.005041 150.470756 
L 988.059046 150.230806 
L 1000.113051 150.892207 
L 1012.167057 150.631184 
L 1024.221062 151.371383 
L 1036.275068 150.78995 
L 1048.329073 150.632857 
L 1060.383078 150.681253 
L 1072.437084 146.478095 
L 1084.491089 147.425948 
L 1096.545095 143.978458 
L 1108.5991 143.074952 
L 1120.653105 143.501243 
L 1132.707111 144.993207 
L 1144.761116 145.916488 
L 1156.815122 146.694788 
L 1168.869127 147.137721 
L 1180.923132 142.815289 
L 1192.977138 144.440368 
L 1205.031143 143.909034 
L 1217.085149 144.886524 
L 1229.139154 145.815139 
L 1241.193159 143.337542 
L 1253.247165 143.55307 
L 1265.30117 144.350723 
L 1277.355176 145.207311 
L 1289.409181 145.625801 
L 1301.463186 146.715087 
L 1313.517192 147.65109 
L 1325.571197 148.441477 
L 1337.625203 149.389978 
L 1349.679208 150.78514 
L 1361.733213 152.209361 
L 1373.787219 147.534529 
L 1385.841224 147.935476 
L 1397.89523 147.328204 
L 1409.949235 148.035918 
L 1422.00324 149.498782 
L 1434.057246 150.394419 
L 1446.111251 151.146456 
L 1458.165257 151.267989 
L 1470.219262 150.790543 
L 1482.273267 152.016859 
L 1494.327273 152.094872 
" style="fill:none;stroke:#ff0000;stroke-linecap:square;stroke-width:1.5;"/>
   </g>
   <g id="patch_3">
    <path d="M 216 203.04 
L 216 51.84 
" style="fill:none;stroke:#000000;stroke-linecap:square;stroke-linejoin:miter;stroke-width:0.8;"/>
   </g>
   <g id="patch_4">
    <path d="M 1555.2 203.04 
L 1555.2 51.84 
" style="fill:none;stroke:#000000;stroke-linecap:square;stroke-linejoin:miter;stroke-width:0.8;"/>
   </g>
   <g id="patch_5">
    <path d="M 216 203.04 
L 1555.2 203.04 
" style="fill:none;stroke:#000000;stroke-linecap:square;stroke-linejoin:miter;stroke-width:0.8;"/>
   </g>
   <g id="patch_6">
    <path d="M 216 51.84 
L 1555.2 51.84 
" style="fill:none;stroke:#000000;stroke-linecap:square;stroke-linejoin:miter;stroke-width:0.8;"/>
   </g>
  </g>
  <g id="axes_2">
   <g id="patch_7">
    <path d="M 216 384.48 
L 1555.2 384.48 
L 1555.2 233.28 
L 216 233.28 
z
" style="fill:#ffffff;"/>
   </g>
   <g id="matplotlib.axis_3">
    <g id="xtick_7">
     <g id="line2d_23">
      <path clip-path="url(#p0283db14bf)" d="M 276.872727 384.48 
L 276.872727 233.28 
" style="fill:none;stroke:#b0b0b0;stroke-linecap:square;stroke-width:0.8;"/>
     </g>
     <g id="line2d_24">
      <g>
       <use style="stroke:#000000;stroke-width:0.8;" x="276.872727" xlink:href="#m2f8106ac00" y="384.48"/>
      </g>
     </g>
     <g id="text_13">
      <!-- 0 -->
      <g transform="translate(273.691477 399.078438)scale(0.1 -0.1)">
       <use xlink:href="#DejaVuSans-48"/>
      </g>
     </g>
    </g>
    <g id="xtick_8">
     <g id="line2d_25">
      <path clip-path="url(#p0283db14bf)" d="M 517.952835 384.48 
L 517.952835 233.28 
" style="fill:none;stroke:#b0b0b0;stroke-linecap:square;stroke-width:0.8;"/>
     </g>
     <g id="line2d_26">
      <g>
       <use style="stroke:#000000;stroke-width:0.8;" x="517.952835" xlink:href="#m2f8106ac00" y="384.48"/>
      </g>
     </g>
     <g id="text_14">
      <!-- 20 -->
      <g transform="translate(511.590335 399.078438)scale(0.1 -0.1)">
       <use xlink:href="#DejaVuSans-50"/>
       <use x="63.623047" xlink:href="#DejaVuSans-48"/>
      </g>
     </g>
    </g>
    <g id="xtick_9">
     <g id="line2d_27">
      <path clip-path="url(#p0283db14bf)" d="M 759.032943 384.48 
L 759.032943 233.28 
" style="fill:none;stroke:#b0b0b0;stroke-linecap:square;stroke-width:0.8;"/>
     </g>
     <g id="line2d_28">
      <g>
       <use style="stroke:#000000;stroke-width:0.8;" x="759.032943" xlink:href="#m2f8106ac00" y="384.48"/>
      </g>
     </g>
     <g id="text_15">
      <!-- 40 -->
      <g transform="translate(752.670443 399.078438)scale(0.1 -0.1)">
       <use xlink:href="#DejaVuSans-52"/>
       <use x="63.623047" xlink:href="#DejaVuSans-48"/>
      </g>
     </g>
    </g>
    <g id="xtick_10">
     <g id="line2d_29">
      <path clip-path="url(#p0283db14bf)" d="M 1000.113051 384.48 
L 1000.113051 233.28 
" style="fill:none;stroke:#b0b0b0;stroke-linecap:square;stroke-width:0.8;"/>
     </g>
     <g id="line2d_30">
      <g>
       <use style="stroke:#000000;stroke-width:0.8;" x="1000.113051" xlink:href="#m2f8106ac00" y="384.48"/>
      </g>
     </g>
     <g id="text_16">
      <!-- 60 -->
      <g transform="translate(993.750551 399.078438)scale(0.1 -0.1)">
       <use xlink:href="#DejaVuSans-54"/>
       <use x="63.623047" xlink:href="#DejaVuSans-48"/>
      </g>
     </g>
    </g>
    <g id="xtick_11">
     <g id="line2d_31">
      <path clip-path="url(#p0283db14bf)" d="M 1241.193159 384.48 
L 1241.193159 233.28 
" style="fill:none;stroke:#b0b0b0;stroke-linecap:square;stroke-width:0.8;"/>
     </g>
     <g id="line2d_32">
      <g>
       <use style="stroke:#000000;stroke-width:0.8;" x="1241.193159" xlink:href="#m2f8106ac00" y="384.48"/>
      </g>
     </g>
     <g id="text_17">
      <!-- 80 -->
      <g transform="translate(1234.830659 399.078438)scale(0.1 -0.1)">
       <use xlink:href="#DejaVuSans-56"/>
       <use x="63.623047" xlink:href="#DejaVuSans-48"/>
      </g>
     </g>
    </g>
    <g id="xtick_12">
     <g id="line2d_33">
      <path clip-path="url(#p0283db14bf)" d="M 1482.273267 384.48 
L 1482.273267 233.28 
" style="fill:none;stroke:#b0b0b0;stroke-linecap:square;stroke-width:0.8;"/>
     </g>
     <g id="line2d_34">
      <g>
       <use style="stroke:#000000;stroke-width:0.8;" x="1482.273267" xlink:href="#m2f8106ac00" y="384.48"/>
      </g>
     </g>
     <g id="text_18">
      <!-- 100 -->
      <g transform="translate(1472.729517 399.078438)scale(0.1 -0.1)">
       <use xlink:href="#DejaVuSans-49"/>
       <use x="63.623047" xlink:href="#DejaVuSans-48"/>
       <use x="127.246094" xlink:href="#DejaVuSans-48"/>
      </g>
     </g>
    </g>
    <g id="text_19">
     <!-- Episodes -->
     <g transform="translate(863.357813 412.756563)scale(0.1 -0.1)">
      <use xlink:href="#DejaVuSans-69"/>
      <use x="63.183594" xlink:href="#DejaVuSans-112"/>
      <use x="126.660156" xlink:href="#DejaVuSans-105"/>
      <use x="154.443359" xlink:href="#DejaVuSans-115"/>
      <use x="206.542969" xlink:href="#DejaVuSans-111"/>
      <use x="267.724609" xlink:href="#DejaVuSans-100"/>
      <use x="331.201172" xlink:href="#DejaVuSans-101"/>
      <use x="392.724609" xlink:href="#DejaVuSans-115"/>
     </g>
    </g>
   </g>
   <g id="matplotlib.axis_4">
    <g id="ytick_5">
     <g id="line2d_35">
      <path clip-path="url(#p0283db14bf)" d="M 216 353.914452 
L 1555.2 353.914452 
" style="fill:none;stroke:#b0b0b0;stroke-linecap:square;stroke-width:0.8;"/>
     </g>
     <g id="line2d_36">
      <g>
       <use style="stroke:#000000;stroke-width:0.8;" x="216" xlink:href="#m8829937b3e" y="353.914452"/>
      </g>
     </g>
     <g id="text_20">
      <!-- 10 -->
      <g transform="translate(196.275 357.71367)scale(0.1 -0.1)">
       <use xlink:href="#DejaVuSans-49"/>
       <use x="63.623047" xlink:href="#DejaVuSans-48"/>
      </g>
     </g>
    </g>
    <g id="ytick_6">
     <g id="line2d_37">
      <path clip-path="url(#p0283db14bf)" d="M 216 315.633892 
L 1555.2 315.633892 
" style="fill:none;stroke:#b0b0b0;stroke-linecap:square;stroke-width:0.8;"/>
     </g>
     <g id="line2d_38">
      <g>
       <use style="stroke:#000000;stroke-width:0.8;" x="216" xlink:href="#m8829937b3e" y="315.633892"/>
      </g>
     </g>
     <g id="text_21">
      <!-- 20 -->
      <g transform="translate(196.275 319.43311)scale(0.1 -0.1)">
       <use xlink:href="#DejaVuSans-50"/>
       <use x="63.623047" xlink:href="#DejaVuSans-48"/>
      </g>
     </g>
    </g>
    <g id="ytick_7">
     <g id="line2d_39">
      <path clip-path="url(#p0283db14bf)" d="M 216 277.353332 
L 1555.2 277.353332 
" style="fill:none;stroke:#b0b0b0;stroke-linecap:square;stroke-width:0.8;"/>
     </g>
     <g id="line2d_40">
      <g>
       <use style="stroke:#000000;stroke-width:0.8;" x="216" xlink:href="#m8829937b3e" y="277.353332"/>
      </g>
     </g>
     <g id="text_22">
      <!-- 30 -->
      <g transform="translate(196.275 281.15255)scale(0.1 -0.1)">
       <defs>
        <path d="M 40.578125 39.3125 
Q 47.65625 37.796875 51.625 33 
Q 55.609375 28.21875 55.609375 21.1875 
Q 55.609375 10.40625 48.1875 4.484375 
Q 40.765625 -1.421875 27.09375 -1.421875 
Q 22.515625 -1.421875 17.65625 -0.515625 
Q 12.796875 0.390625 7.625 2.203125 
L 7.625 11.71875 
Q 11.71875 9.328125 16.59375 8.109375 
Q 21.484375 6.890625 26.8125 6.890625 
Q 36.078125 6.890625 40.9375 10.546875 
Q 45.796875 14.203125 45.796875 21.1875 
Q 45.796875 27.640625 41.28125 31.265625 
Q 36.765625 34.90625 28.71875 34.90625 
L 20.21875 34.90625 
L 20.21875 43.015625 
L 29.109375 43.015625 
Q 36.375 43.015625 40.234375 45.921875 
Q 44.09375 48.828125 44.09375 54.296875 
Q 44.09375 59.90625 40.109375 62.90625 
Q 36.140625 65.921875 28.71875 65.921875 
Q 24.65625 65.921875 20.015625 65.03125 
Q 15.375 64.15625 9.8125 62.3125 
L 9.8125 71.09375 
Q 15.4375 72.65625 20.34375 73.4375 
Q 25.25 74.21875 29.59375 74.21875 
Q 40.828125 74.21875 47.359375 69.109375 
Q 53.90625 64.015625 53.90625 55.328125 
Q 53.90625 49.265625 50.4375 45.09375 
Q 46.96875 40.921875 40.578125 39.3125 
z
" id="DejaVuSans-51"/>
       </defs>
       <use xlink:href="#DejaVuSans-51"/>
       <use x="63.623047" xlink:href="#DejaVuSans-48"/>
      </g>
     </g>
    </g>
    <g id="ytick_8">
     <g id="line2d_41">
      <path clip-path="url(#p0283db14bf)" d="M 216 239.072772 
L 1555.2 239.072772 
" style="fill:none;stroke:#b0b0b0;stroke-linecap:square;stroke-width:0.8;"/>
     </g>
     <g id="line2d_42">
      <g>
       <use style="stroke:#000000;stroke-width:0.8;" x="216" xlink:href="#m8829937b3e" y="239.072772"/>
      </g>
     </g>
     <g id="text_23">
      <!-- 40 -->
      <g transform="translate(196.275 242.87199)scale(0.1 -0.1)">
       <use xlink:href="#DejaVuSans-52"/>
       <use x="63.623047" xlink:href="#DejaVuSans-48"/>
      </g>
     </g>
    </g>
    <g id="text_24">
     <!-- Loss / Episode -->
     <g transform="translate(190.195312 344.347188)rotate(-90)scale(0.1 -0.1)">
      <defs>
       <path d="M 9.8125 72.90625 
L 19.671875 72.90625 
L 19.671875 8.296875 
L 55.171875 8.296875 
L 55.171875 0 
L 9.8125 0 
z
" id="DejaVuSans-76"/>
      </defs>
      <use xlink:href="#DejaVuSans-76"/>
      <use x="53.962891" xlink:href="#DejaVuSans-111"/>
      <use x="115.144531" xlink:href="#DejaVuSans-115"/>
      <use x="167.244141" xlink:href="#DejaVuSans-115"/>
      <use x="219.34375" xlink:href="#DejaVuSans-32"/>
      <use x="251.130859" xlink:href="#DejaVuSans-47"/>
      <use x="284.822266" xlink:href="#DejaVuSans-32"/>
      <use x="316.609375" xlink:href="#DejaVuSans-69"/>
      <use x="379.792969" xlink:href="#DejaVuSans-112"/>
      <use x="443.269531" xlink:href="#DejaVuSans-105"/>
      <use x="471.052734" xlink:href="#DejaVuSans-115"/>
      <use x="523.152344" xlink:href="#DejaVuSans-111"/>
      <use x="584.333984" xlink:href="#DejaVuSans-100"/>
      <use x="647.810547" xlink:href="#DejaVuSans-101"/>
     </g>
    </g>
   </g>
   <g id="line2d_43">
    <path clip-path="url(#p0283db14bf)" d="M 276.872727 377.607273 
L 288.926733 371.912016 
L 300.980738 357.838299 
L 313.034743 367.10243 
L 325.088749 356.921549 
L 337.142754 360.397635 
L 349.19676 333.615583 
L 361.250765 302.289704 
L 373.30477 368.076223 
L 385.358776 354.149602 
L 397.412781 330.441572 
L 409.466787 372.342075 
L 421.520792 341.920764 
L 433.574797 330.103055 
L 445.628803 339.627317 
L 457.682808 372.416015 
L 469.736814 355.159653 
L 481.790819 355.893718 
L 493.844824 366.679255 
L 505.89883 356.741232 
L 517.952835 364.327758 
L 530.006841 365.429797 
L 542.060846 367.709598 
L 554.114851 359.428121 
L 566.168857 340.994011 
L 578.222862 342.26438 
L 590.276868 368.761981 
L 602.330873 365.857551 
L 614.384878 355.366094 
L 626.438884 354.513684 
L 638.492889 349.412696 
L 650.546895 366.5881 
L 662.6009 305.064849 
L 674.654905 356.7123 
L 686.708911 352.589712 
L 698.762916 267.935281 
L 710.816922 358.689347 
L 722.870927 364.130155 
L 734.924932 366.743418 
L 746.978938 296.070187 
L 759.032943 366.335803 
L 771.086949 311.875462 
L 783.140954 365.512447 
L 795.194959 365.625417 
L 807.248965 369.263477 
L 819.30297 303.565769 
L 831.356976 346.943598 
L 843.410981 364.628402 
L 855.464986 351.073126 
L 867.518992 283.632305 
L 879.572997 369.64557 
L 891.627003 367.619414 
L 903.681008 355.955306 
L 915.735014 364.176041 
L 927.789019 316.057915 
L 939.843024 339.44604 
L 951.89703 281.043631 
L 963.951035 353.911732 
L 976.005041 351.266114 
L 988.059046 342.7091 
L 1000.113051 359.853934 
L 1012.167057 341.636351 
L 1024.221062 360.332605 
L 1036.275068 331.442957 
L 1048.329073 345.958291 
L 1060.383078 348.217644 
L 1072.437084 258.359256 
L 1084.491089 361.643279 
L 1096.545095 275.356841 
L 1108.5991 319.907116 
L 1120.653105 345.757089 
L 1132.707111 369.794733 
L 1144.761116 360.528327 
L 1156.815122 358.392142 
L 1168.869127 353.40821 
L 1180.923132 266.359017 
L 1192.977138 366.512534 
L 1205.031143 325.777954 
L 1217.085149 359.881628 
L 1229.139154 357.633884 
L 1241.193159 287.243443 
L 1253.247165 341.020803 
L 1265.30117 357.055077 
L 1277.355176 359.049677 
L 1289.409181 350.926871 
L 1301.463186 366.427418 
L 1313.517192 362.654515 
L 1325.571197 358.605337 
L 1337.625203 364.31419 
L 1349.679208 371.588658 
L 1361.733213 371.378555 
L 1373.787219 240.152727 
L 1385.841224 348.1668 
L 1397.89523 335.534883 
L 1409.949235 353.823662 
L 1422.00324 369.746611 
L 1434.057246 362.345688 
L 1446.111251 357.997817 
L 1458.165257 345.691898 
L 1470.219262 338.420911 
L 1482.273267 369.794421 
L 1494.327273 354.55957 
" style="fill:none;stroke:#ffa500;stroke-linecap:square;stroke-width:1.5;"/>
   </g>
   <g id="patch_8">
    <path d="M 216 384.48 
L 216 233.28 
" style="fill:none;stroke:#000000;stroke-linecap:square;stroke-linejoin:miter;stroke-width:0.8;"/>
   </g>
   <g id="patch_9">
    <path d="M 1555.2 384.48 
L 1555.2 233.28 
" style="fill:none;stroke:#000000;stroke-linecap:square;stroke-linejoin:miter;stroke-width:0.8;"/>
   </g>
   <g id="patch_10">
    <path d="M 216 384.48 
L 1555.2 384.48 
" style="fill:none;stroke:#000000;stroke-linecap:square;stroke-linejoin:miter;stroke-width:0.8;"/>
   </g>
   <g id="patch_11">
    <path d="M 216 233.28 
L 1555.2 233.28 
" style="fill:none;stroke:#000000;stroke-linecap:square;stroke-linejoin:miter;stroke-width:0.8;"/>
   </g>
  </g>
  <g id="text_25">
   <!-- Remote A3C Result -->
   <g transform="translate(806.385937 17.758125)scale(0.12 -0.12)">
    <defs>
     <path d="M 52 44.1875 
Q 55.375 50.25 60.0625 53.125 
Q 64.75 56 71.09375 56 
Q 79.640625 56 84.28125 50.015625 
Q 88.921875 44.046875 88.921875 33.015625 
L 88.921875 0 
L 79.890625 0 
L 79.890625 32.71875 
Q 79.890625 40.578125 77.09375 44.375 
Q 74.3125 48.1875 68.609375 48.1875 
Q 61.625 48.1875 57.5625 43.546875 
Q 53.515625 38.921875 53.515625 30.90625 
L 53.515625 0 
L 44.484375 0 
L 44.484375 32.71875 
Q 44.484375 40.625 41.703125 44.40625 
Q 38.921875 48.1875 33.109375 48.1875 
Q 26.21875 48.1875 22.15625 43.53125 
Q 18.109375 38.875 18.109375 30.90625 
L 18.109375 0 
L 9.078125 0 
L 9.078125 54.6875 
L 18.109375 54.6875 
L 18.109375 46.1875 
Q 21.1875 51.21875 25.484375 53.609375 
Q 29.78125 56 35.6875 56 
Q 41.65625 56 45.828125 52.96875 
Q 50 49.953125 52 44.1875 
z
" id="DejaVuSans-109"/>
     <path d="M 18.3125 70.21875 
L 18.3125 54.6875 
L 36.8125 54.6875 
L 36.8125 47.703125 
L 18.3125 47.703125 
L 18.3125 18.015625 
Q 18.3125 11.328125 20.140625 9.421875 
Q 21.96875 7.515625 27.59375 7.515625 
L 36.8125 7.515625 
L 36.8125 0 
L 27.59375 0 
Q 17.1875 0 13.234375 3.875 
Q 9.28125 7.765625 9.28125 18.015625 
L 9.28125 47.703125 
L 2.6875 47.703125 
L 2.6875 54.6875 
L 9.28125 54.6875 
L 9.28125 70.21875 
z
" id="DejaVuSans-116"/>
     <path d="M 34.1875 63.1875 
L 20.796875 26.90625 
L 47.609375 26.90625 
z
M 28.609375 72.90625 
L 39.796875 72.90625 
L 67.578125 0 
L 57.328125 0 
L 50.6875 18.703125 
L 17.828125 18.703125 
L 11.1875 0 
L 0.78125 0 
z
" id="DejaVuSans-65"/>
     <path d="M 64.40625 67.28125 
L 64.40625 56.890625 
Q 59.421875 61.53125 53.78125 63.8125 
Q 48.140625 66.109375 41.796875 66.109375 
Q 29.296875 66.109375 22.65625 58.46875 
Q 16.015625 50.828125 16.015625 36.375 
Q 16.015625 21.96875 22.65625 14.328125 
Q 29.296875 6.6875 41.796875 6.6875 
Q 48.140625 6.6875 53.78125 8.984375 
Q 59.421875 11.28125 64.40625 15.921875 
L 64.40625 5.609375 
Q 59.234375 2.09375 53.4375 0.328125 
Q 47.65625 -1.421875 41.21875 -1.421875 
Q 24.65625 -1.421875 15.125 8.703125 
Q 5.609375 18.84375 5.609375 36.375 
Q 5.609375 53.953125 15.125 64.078125 
Q 24.65625 74.21875 41.21875 74.21875 
Q 47.75 74.21875 53.53125 72.484375 
Q 59.328125 70.75 64.40625 67.28125 
z
" id="DejaVuSans-67"/>
     <path d="M 8.5 21.578125 
L 8.5 54.6875 
L 17.484375 54.6875 
L 17.484375 21.921875 
Q 17.484375 14.15625 20.5 10.265625 
Q 23.53125 6.390625 29.59375 6.390625 
Q 36.859375 6.390625 41.078125 11.03125 
Q 45.3125 15.671875 45.3125 23.6875 
L 45.3125 54.6875 
L 54.296875 54.6875 
L 54.296875 0 
L 45.3125 0 
L 45.3125 8.40625 
Q 42.046875 3.421875 37.71875 1 
Q 33.40625 -1.421875 27.6875 -1.421875 
Q 18.265625 -1.421875 13.375 4.4375 
Q 8.5 10.296875 8.5 21.578125 
z
M 31.109375 56 
z
" id="DejaVuSans-117"/>
     <path d="M 9.421875 75.984375 
L 18.40625 75.984375 
L 18.40625 0 
L 9.421875 0 
z
" id="DejaVuSans-108"/>
    </defs>
    <use xlink:href="#DejaVuSans-82"/>
    <use x="64.982422" xlink:href="#DejaVuSans-101"/>
    <use x="126.505859" xlink:href="#DejaVuSans-109"/>
    <use x="223.917969" xlink:href="#DejaVuSans-111"/>
    <use x="285.099609" xlink:href="#DejaVuSans-116"/>
    <use x="324.308594" xlink:href="#DejaVuSans-101"/>
    <use x="385.832031" xlink:href="#DejaVuSans-32"/>
    <use x="417.619141" xlink:href="#DejaVuSans-65"/>
    <use x="486.027344" xlink:href="#DejaVuSans-51"/>
    <use x="549.650391" xlink:href="#DejaVuSans-67"/>
    <use x="619.474609" xlink:href="#DejaVuSans-32"/>
    <use x="651.261719" xlink:href="#DejaVuSans-82"/>
    <use x="716.244141" xlink:href="#DejaVuSans-101"/>
    <use x="777.767578" xlink:href="#DejaVuSans-115"/>
    <use x="829.867188" xlink:href="#DejaVuSans-117"/>
    <use x="893.246094" xlink:href="#DejaVuSans-108"/>
    <use x="921.029297" xlink:href="#DejaVuSans-116"/>
   </g>
  </g>
 </g>
 <defs>
  <clipPath id="p28d1381a42">
   <rect height="151.2" width="1339.2" x="216" y="51.84"/>
  </clipPath>
  <clipPath id="p0283db14bf">
   <rect height="151.2" width="1339.2" x="216" y="233.28"/>
  </clipPath>
 </defs>
</svg>
